<svg width="128" height="40" viewBox="0 0 128 40" fill="none" xmlns="http://www.w3.org/2000/svg">
<path d="M20.834 20.0002C20.834 22.7616 18.5955 25.0002 15.834 25.0002C13.0726 25.0002 10.834 22.7616 10.834 20.0002C10.834 17.2387 13.0726 15.0002 15.834 15.0002C18.5955 15.0002 20.834 17.2387 20.834 20.0002Z" fill="#FF4405"/>
<path d="M20.834 8.3335C20.834 11.0949 18.5955 13.3335 15.834 13.3335C13.0726 13.3335 10.834 11.0949 10.834 8.3335C10.834 5.57207 13.0726 3.3335 15.834 3.3335C18.5955 3.3335 20.834 5.57207 20.834 8.3335Z" fill="#FF4405"/>
<path d="M30.9375 25.8335C30.9375 28.5949 28.6989 30.8335 25.9375 30.8335C23.1761 30.8335 20.9375 28.5949 20.9375 25.8335C20.9375 23.0721 23.1761 20.8335 25.9375 20.8335C28.6989 20.8335 30.9375 23.0721 30.9375 25.8335Z" fill="#FF4405"/>
<path d="M30.9391 14.167C30.9391 16.9284 28.7005 19.167 25.9391 19.167C23.1777 19.167 20.9391 16.9284 20.9391 14.167C20.9391 11.4056 23.1777 9.16702 25.9391 9.16702C28.7005 9.16702 30.9391 11.4056 30.9391 14.167Z" fill="#FF4405"/>
<path d="M20.834 31.6668C20.834 34.4283 18.5955 36.6668 15.834 36.6668C13.0726 36.6668 10.834 34.4283 10.834 31.6668C10.834 28.9054 13.0726 26.6668 15.834 26.6668C18.5955 26.6668 20.834 28.9054 20.834 31.6668Z" fill="#FF4405"/>
<path d="M10.7308 14.1668C10.7308 16.9282 8.49221 19.1668 5.73079 19.1668C2.96937 19.1668 0.730791 16.9282 0.730791 14.1668C0.730791 11.4054 2.96937 9.16682 5.73079 9.16682C8.49221 9.16682 10.7308 11.4054 10.7308 14.1668Z" fill="#FF4405"/>
<path d="M10.7292 25.8333C10.7292 28.5947 8.49059 30.8333 5.72916 30.8333C2.96774 30.8333 0.729164 28.5947 0.729164 25.8333C0.729164 23.0719 2.96774 20.8333 5.72916 20.8333C8.49059 20.8333 10.7292 23.0719 10.7292 25.8333Z" fill="#FF4405"/>
<path d="M41.6667 27.4998V11.1301H48.1266C51.807 11.1301 54.1142 13.2065 54.1142 16.5024C54.1142 19.7983 51.7631 21.8748 48.0827 21.8748H45.0505V27.4998H41.6667ZM45.0505 19.0403H47.9069C49.6977 19.0403 50.8073 18.0625 50.8073 16.5024C50.8073 14.9424 49.6977 13.9646 47.9069 13.9646H45.0505V19.0403Z" fill="#111827"/>
<path d="M60.1241 27.7634C56.6085 27.7634 54.2355 25.3464 54.2355 21.71C54.2355 18.0735 56.6085 15.6345 60.1241 15.6345C63.6507 15.6345 66.0238 18.0735 66.0238 21.71C66.0238 25.3464 63.6507 27.7634 60.1241 27.7634ZM60.1241 25.1377C61.7062 25.1377 62.7609 23.8633 62.7609 21.71C62.7609 19.5457 61.6952 18.2603 60.1241 18.2603C58.5641 18.2603 57.4984 19.5457 57.4984 21.71C57.4984 23.8633 58.5531 25.1377 60.1241 25.1377Z" fill="#111827"/>
<path d="M71.1219 27.4998C68.4742 27.4998 67.3646 26.5989 67.3646 24.3577V11.1301H70.6055V24.05C70.6055 24.7751 70.8582 25.0168 71.5833 25.0168H72.0557V27.4998H71.1219Z" fill="#111827"/>
<path d="M76.8242 27.4998C74.1765 27.4998 73.0669 26.5989 73.0669 24.3577V11.1301H76.3079V24.05C76.3079 24.7751 76.5606 25.0168 77.2857 25.0168H77.7581V27.4998H76.8242Z" fill="#111827"/>
<path d="M78.7693 27.4998V15.8982H82.0102V27.4998H78.7693ZM80.3842 14.437C79.3186 14.437 78.5385 13.7009 78.5385 12.7122C78.5385 11.7234 79.3186 10.9873 80.3842 10.9873C81.4499 10.9873 82.2299 11.7234 82.2299 12.7122C82.2299 13.7009 81.4499 14.437 80.3842 14.437Z" fill="#111827"/>
<path d="M87.0973 21.0508V27.4998H83.8564V15.8982H87.0424V17.7219C87.8224 16.4036 88.998 15.6565 90.6679 15.6565C93.1398 15.6565 94.7328 17.3044 94.7328 20.2378V27.4998H91.5028V20.8311C91.5028 19.271 90.7228 18.447 89.3715 18.447C88.0312 18.447 87.0973 19.249 87.0973 21.0508Z" fill="#111827"/>
<path d="M100.139 27.6975C97.8204 27.6975 96.1505 26.5439 96.1505 24.2258C96.1505 21.6111 98.2599 20.864 100.677 20.6443C102.797 20.4355 103.544 20.3367 103.544 19.5896V19.5127C103.544 18.6558 102.83 18.0625 101.644 18.0625C100.435 18.0625 99.6442 18.6777 99.5673 19.5676H96.524C96.6669 17.1726 98.5565 15.6565 101.743 15.6565C104.918 15.6565 106.741 17.1506 106.741 19.6335V27.4998H103.577V25.8628H103.533C102.918 26.9944 101.918 27.6975 100.139 27.6975ZM101.039 25.4453C102.599 25.4453 103.566 24.5115 103.566 23.259V22.0945C103.193 22.3032 102.281 22.457 101.237 22.6218C100.128 22.7866 99.2487 23.2151 99.2487 24.1379C99.2487 24.9619 99.9518 25.4453 101.039 25.4453Z" fill="#111827"/>
<path d="M115.245 15.8982V18.436H112.872V23.9182C112.872 24.7092 113.125 24.9619 114.004 24.9619H115.245V27.4998H113.356C110.807 27.4998 109.631 26.533 109.631 24.4236V18.436H107.632V15.8982H109.631V12.7341H112.872V15.8982H115.245Z" fill="#111827"/>
<path d="M121.552 27.7634C118.036 27.7634 115.751 25.2366 115.751 21.71C115.751 18.1724 118.113 15.6345 121.442 15.6345C124.859 15.6345 127.155 18.1064 127.155 21.644V22.512H118.904C118.959 24.2258 119.948 25.3354 121.651 25.3354C122.914 25.3354 123.782 24.7532 124.079 23.8523H127.034C126.605 26.1594 124.364 27.7634 121.552 27.7634ZM118.926 20.4465H124.101C123.936 18.9963 122.969 18.0955 121.508 18.0955C120.058 18.0955 119.102 18.9963 118.926 20.4465Z" fill="#111827"/>
</svg>
